<?xml version="1.0" encoding="UTF-8"?>
<!DOCTYPE svg PUBLIC "-//W3C//DTD SVG 1.1//EN" "http://www.w3.org/Graphics/SVG/1.1/DTD/svg11.dtd">
<!-- Creator: CorelDRAW 2018 (64-Bit) -->
<svg xmlns="http://www.w3.org/2000/svg" xml:space="preserve" width="80.117mm" height="44.4068mm" version="1.1" style="shape-rendering:geometricPrecision; text-rendering:geometricPrecision; image-rendering:optimizeQuality; fill-rule:evenodd; clip-rule:evenodd"
viewBox="0 0 8011.7 4440.68"
 xmlns:xlink="http://www.w3.org/1999/xlink">
 <defs>
  <style type="text/css">
   <![CDATA[
    .fil1 {fill:#5E361C}
    .fil2 {fill:#54AF3A}
    .fil0 {fill:#C6A770;fill-rule:nonzero}
    .fil3 {fill:#5E361C;fill-rule:nonzero}
   ]]>
  </style>
 </defs>
 <g id="Слой_x0020_1">
  <metadata id="CorelCorpID_0Corel-Layer"/>
  <g id="_1904538221392">
   <g>
    <path class="fil0" d="M3879.41 -0.02l0 1122.38c-49.84,9.34 -98.41,34.81 -138.67,70.45 -4.28,-3.72 -8.73,-7.3 -13.35,-10.72 -38.57,-28.58 -78.89,-40.64 -117.98,-40.22 0,-278.97 0,-578.81 0,-871.89l-2790.35 0 0 1070.12c-22.36,8.53 -44.06,20.02 -64.42,34.1 -4.44,3.07 -8.83,6.27 -13.17,9.6 -30.28,-46.32 -78.68,-79.69 -146.76,-85.42 -15.46,-1.3 -30.78,-1 -45.65,1.03l0 -1299.43 3330.35 0zm0 2592.44l0 1831.52 -3330.35 0 0 -1720.4c14.22,-3.7 28.3,-8.91 41.96,-15.46 33.28,100.06 113.91,181.31 228.04,172.05 0,431.27 0,862.54 0,1293.81l2790.35 0c0,-613.51 0,-1266.67 0,-1894.85 39.48,10.63 81.47,20.77 123.33,28.16 -4.9,7.91 -9.39,15.89 -13.44,23.88 -40.54,80 -50.73,179.77 24.96,243.6 38.96,32.86 87.54,43.44 135.15,37.69z"/>
    <g>
     <path class="fil1" d="M925.58 1819.25c-9.64,-40.21 -28.39,-79.25 -62.99,-90.66 4.19,54.61 30.35,74.2 19.59,139.68 -28.17,171.56 -293.46,75.14 -349.29,86.1 20.34,73.85 196.21,74.66 254.28,76.99 95.16,236.62 205.87,200.37 336.45,251.97 -52.93,8.4 -103.92,19.57 -155.2,32.5 -47.29,11.92 -92.36,26.45 -134.12,36.45 -151.26,36.23 -200.87,-81.93 -252.27,-79.29 -6.28,67.12 144.12,135.36 236.6,129.26 92.8,-6.11 224.28,-42 316.82,-57.61 309.05,-52.13 371.94,22.57 598.03,92.76 227.02,70.47 361.07,92.03 450.56,291.75 91.55,204.34 32.79,376.31 209.74,522.49 42.41,35.04 215.39,135.52 255.35,49.96 23.07,-49.4 -2.57,-117.38 -22.3,-152.42 -37.55,-66.68 -63.95,-31.85 -129.35,-57.35 -95.81,-37.37 -94.03,-142.09 -121,-249.21 -24.05,-95.56 -54.76,-189.85 -99.33,-262.66 -128.41,-209.78 -492.55,-275.09 -627.47,-484.76 -86.1,-133.8 -55.13,-239.47 -71.18,-288.19 -84.59,15.56 -31.1,187.38 -17.2,239.79 -247.72,-30.05 -205.55,-181.96 -308.61,-208.31 6.98,95.59 69.15,130.02 105.3,188.89 -48.2,2.53 -96.69,0.64 -141.38,-9.52 -48.72,-11.08 -73.78,-36.13 -105.24,-18.61 48.95,88.92 251.8,80.66 344.63,104.85 120.54,31.42 183.5,121.3 242.16,198.03 -313.88,-131.18 -781.59,-18.3 -834.01,-293.6 17.69,-16.82 33.64,-26.85 45.88,-39.04 35.45,-35.29 26.47,-104.69 15.55,-150.24z"/>
     <path class="fil1" d="M2653.99 1227.13c-34.18,36.28 81.55,107.03 93.9,170.34 28.2,144.6 -182.5,96.99 66.86,357.37 36.46,38.08 84.51,127.57 52.87,198.68 -29.66,66.64 -99.57,74.99 -184.91,92.33 -85.71,17.4 -129.85,44.51 -228.04,32.28 -264.84,-32.96 -221.14,-228.28 -328.8,-190.21 13.34,53.37 20.78,3.92 64.97,91.92 24,47.8 24.39,59.34 58.7,90.04 58.06,51.96 151.72,72.31 116.03,169.8 -49.27,134.55 -18.5,117.73 48.81,203 41.79,52.93 83.93,117.09 126.64,176.81 0.74,-162.16 -179.1,-380.93 52.6,-418.7 184.28,-30.03 314.8,131.49 499.44,61.72 203.38,-76.87 72.58,-233.65 390.71,-147.69 48.19,13.02 458.91,151.52 467.09,32.77 -30.11,-11.74 -138.6,-6.51 -197.64,-24.16 -58.1,-17.36 -110.5,-42.6 -145.92,-77.82 8.74,-32.71 104.63,-102.76 127.52,-124.57 32.95,-31.41 98.77,-98.8 59.55,-163.5 -23.87,13.52 -24.55,29.63 -39.85,53.68 -35.73,56.19 -317.88,272.97 -394.7,186.5 -23.89,-39.85 80.43,-134.17 105.86,-170.02 33.49,-47.23 97.8,-169.17 59.82,-223.56 -26.89,18.72 -20.89,20.95 -32.05,57.93 -15.06,49.93 -47.09,115.59 -84.18,146.71 -108.29,90.88 -56.26,27.64 -158.2,147.96 -135.51,159.94 -168.07,246.72 -379.13,168.3 18.16,-44.29 38.38,-41.95 68.27,-71.39 105.62,-104.08 37.76,-190.33 11.63,-259 131.96,-22.73 129.74,-32.85 202.81,-112.97 109.31,-8.15 135.76,18.23 226.69,-39.72 37.63,-23.99 106.99,-98.92 89.54,-154.28 -30.29,1.99 -32.81,26.08 -65.07,63.36 -62.02,71.65 -137.75,100.79 -242.95,41.39 -107.1,-60.47 -93.41,-276.76 -192.23,-270.45 6.04,43.91 51.63,93.87 69.34,161.06 43.46,164.96 18.54,66.13 56.43,163.9 -81.84,140.73 -330.45,-4.21 -329.23,-93.22 0.66,-47.94 81.57,-95.8 19.55,-197.13 -9.32,-15.22 -107.22,-125.07 -132.73,-129.46z"/>
     <path class="fil1" d="M2330.16 1240.01c-82.44,102.56 -238.95,29.55 -293.49,-23.35 -46.06,-44.69 -52.22,-73.37 -58.23,-90.52 -4.98,-14.19 -10.14,-19.04 -35.46,-31.74 -2.05,16.22 -1.88,31.72 0.18,46.48 13.98,99.76 114.99,165.71 207.45,194.02 148.46,45.47 128.89,198.97 64.97,307.36 -110.83,19.2 -185.82,-24.2 -243.32,-74.13 -127.01,-110.3 -88.36,-156.03 -115.62,-205.99 -23.24,8.28 -26.5,33.36 -21.72,61.24 23.89,139.34 224.2,246.97 130.43,332.15 -171.07,155.4 -325.54,-26.63 -352.79,-151.48 -26.46,-121.18 159.53,-103.48 106.2,-270.89 -57.48,21.31 2.38,117.65 -145.57,169.37 -141.74,49.54 -177.93,-42.79 -242.6,-38.16 0.96,52.48 86.48,75.23 138.07,88.45 187.75,48.11 -13.28,101.99 313.71,353.72 10.81,187.58 22.9,246.62 145.32,346.13 85.03,69.11 205.08,119.67 294.01,188.12 150.94,116.19 174.81,355.2 224.6,498.03 16.77,48.1 33.74,81.86 66.9,90.63 87.16,23.06 90.36,-51.07 78.09,-114.04 -16.87,-86.61 -68.48,-184.03 -91.84,-241.53 -202.58,-498.72 -661.59,-391.88 -610.56,-736.07 43.29,-30.42 91.31,-54.41 134.76,-96.19 31.83,-30.6 76.92,-101.17 115.47,-115.87 64.8,-24.7 106.84,-16.22 179.22,-53.18 60.95,-31.13 121.22,-65.33 111.32,-115.18 -44.29,-2.35 -55.55,42.2 -128.18,62.37 24.56,-155.89 -3.24,-143.9 -20.75,-265.2 34.14,-18.77 183.86,-179.27 122.93,-252.35 -22.08,23.09 -38.56,94.33 -73.5,137.8z"/>
     <path class="fil1" d="M2069.44 3009.5c-115.68,108.53 -71.73,343.91 13.05,469.69 71.86,106.61 190.54,214.53 329.85,273.02 201.23,84.49 810.37,194.09 1049.13,165.53 -25.98,-53.42 -148.18,-58.66 -205.03,-83 -423.89,-181.49 -310.92,-99.44 -666.71,-195.6 -154.83,-41.84 -277.24,-114.96 -368.11,-206.24 -105.13,-105.59 -148.93,-231.5 -152.18,-423.4z"/>
     <path class="fil1" d="M1521.13 4039.66c97.35,1.1 164.09,-73.57 219.51,-117.01 67.5,-52.9 117.86,-90.06 191.83,-131.97 53.94,-30.55 190.23,-69.46 196.8,-132.66 4.54,-43.76 -40.11,-67.14 -67.29,-102.44 -21.12,-27.44 -43.32,-77.94 -66.26,-94.65 -27.8,51.48 -22.06,62.58 -64.37,105.28 -88.89,89.68 -193.62,145.49 -323.04,178.46 -189.14,48.19 -558.21,58.42 -585.15,71.5 183.83,88.98 579.18,9.21 629.52,26.75 29.16,68.15 -126.1,101.25 -131.55,196.74z"/>
     <path class="fil1" d="M2304.14 3239.05c-164.27,-190.91 -86.65,-462.12 -215.47,-525.75 2.29,49.77 16.25,108.84 19.88,166.24 3.68,58.21 3.87,116.65 5.09,176.82 2.33,115.07 39.2,204.78 92.62,280.87 100.13,142.59 328.51,273.72 476.38,257.92 29.15,-114.9 -66.36,-177.61 -151.61,-212.72 -90.52,-37.29 -172.97,-80.72 -226.89,-143.38z"/>
     <path class="fil1" d="M1809.59 3955.98c107.28,31.75 182.08,-48.86 282.7,-65.66 -17.26,63.25 -76.1,71.83 -90.72,130.1 48.12,20.72 123.05,-58.26 171.44,-82.29 164.6,-81.71 567.15,89.88 702.88,-1.15 -2.65,-3.19 0.06,-13.14 -40.79,-23.21 -15.99,-3.94 -34.44,-5.14 -51.22,-6.4 -161.66,-12.08 -315.94,-67.83 -450.71,-150.94l-142.75 -100.86c-30.13,18.89 -48.42,72.69 -77.39,101.98l-201.85 131.48c-62.32,28.5 -87.57,27.38 -101.59,66.95z"/>
     <path class="fil2" d="M4053.97 2109.66c66.94,-97.66 -31.32,-349.88 -188.82,-262.06 -119.01,66.36 67.73,270.28 147.7,277.22 -6.76,-75.99 -20.43,-110.91 -42.1,-170.07 51.21,40.88 55.55,98.96 83.22,154.91z"/>
     <path class="fil2" d="M2310.54 1109.21c-15.91,-74.28 -59.87,-119.95 -102.45,-156.52 74.18,21.6 85.96,88.06 139.09,129.98 18.33,-133.47 -125.24,-302.75 -250.68,-206.23 -123.79,95.26 101.43,226.78 214.04,232.77z"/>
     <path class="fil2" d="M3005.15 1268.6c-10.27,-68.96 -45.87,-104.28 -73.98,-151.68 67.23,31.41 80.18,88.51 111.25,129.62 33,-124.71 -98.62,-314.48 -233.51,-223.55 -125.68,84.74 93.44,244.2 196.24,245.61z"/>
     <path class="fil2" d="M338.06 2348.07c55.7,-41.03 99.36,-35.17 179.24,-38.16 -23.1,-73.59 -317.81,-98.26 -305.5,88.2 8.88,134.59 175.11,64.25 249.44,13.63 51.03,-34.75 60.22,-51.68 57.33,-59.98 -2.52,-7.21 -27.06,-11.63 -34.54,-13.08 -45.85,-8.87 -102.68,0.2 -145.97,9.39z"/>
     <path class="fil2" d="M1208.82 1832.97c-14.76,-55.76 -82.44,-91.59 -139.92,-119.84 84.14,3.6 114.69,54.13 165.46,80.63 -3,-114.01 -197.77,-247.18 -289.66,-131.46 -113.3,142.68 149.32,186.93 264.12,170.67z"/>
     <path class="fil2" d="M761.92 2625.01c-43.47,-45.62 -40.68,-112.87 -45.66,-144.11 -78.95,67.53 -31.69,319.46 127.65,268.75 126.78,-40.34 -19.38,-259.98 -90.03,-277.89 -7.99,70.37 -1.6,89.55 8.04,153.25z"/>
     <path class="fil2" d="M259.11 2228.74c-29.91,-50.19 -70.33,-62.62 -112.22,-91.44 59.25,7.29 81.38,32.65 131.83,55.66 -5.77,-62.87 -80.01,-120.48 -140.98,-134.2 -85.97,-19.33 -158.34,42.89 -132.41,122.74 34.33,63.37 172.16,69.66 253.78,47.24z"/>
     <path class="fil2" d="M3744.45 1383.04c46.99,-27.55 86,-75.45 156.57,-74.35 -54.4,5.87 -117.88,64.09 -127.71,106.46 88.32,29.79 314.39,-38.72 227.07,-150.24 -85.86,-109.64 -241.83,15.47 -255.93,118.13z"/>
     <path class="fil2" d="M2461.31 1064.45c64.46,-15.02 77.28,-42.85 163.49,-34.28 -64.26,14.64 -113.27,28.33 -146.04,69.75 71.51,60.51 337.78,48.41 252,-94.65 -66.72,-111.25 -240.57,-26.88 -269.45,59.18z"/>
     <path class="fil2" d="M2020.39 863.72c1.73,-47 -93.09,-110.15 -129.84,-109.79 75.75,-5.96 115.61,53.7 159.01,76.1 -2.78,-94.18 -160.36,-225.19 -248.58,-128.73 -110.07,120.36 115.26,171.44 219.41,162.42z"/>
     <path class="fil2" d="M735.8 1570.81c45.7,-21.48 74.75,-58.36 146.51,-61.4 -48.94,21.03 -113.33,55.08 -124.91,96.16 110.22,28.59 349.31,-18.78 229.33,-145.23 -86.56,-91.23 -241.81,22.33 -250.93,110.47z"/>
     <path class="fil2" d="M3557.67 1503.76c41.81,-0.27 66.84,0.15 92.16,3.14 18.66,2.2 37.97,11.35 66.84,26.77 -58.87,-5.3 -110.67,-18.21 -157.07,11.28 36.44,70.22 259.01,167.4 269.8,35.7 12.04,-147.16 -192.89,-153.37 -271.73,-76.89z"/>
     <path class="fil2" d="M3267.69 1035.74c47.65,-25.42 61.6,-61.26 140.18,-74.69 -42.04,31.35 -100.65,54.64 -113.05,109.24 113.44,12.67 323.08,-40.22 223.74,-158.11 -81.88,-97.17 -238.97,16.54 -250.87,123.56z"/>
     <path class="fil2" d="M3863.02 1736.65c12.62,-8.31 37.54,-43.6 59.99,-64.83 10.9,-10.32 28.94,-18.39 50.68,-26.52l-27.23 33.5c-20.76,22.13 -43.2,49.68 -48.72,86.69 47.19,0.47 105.35,-14.77 150.49,-42.11 152.02,-92.09 27.11,-220.7 -78.36,-164.32 -55.64,29.75 -102.38,100.66 -106.85,177.59z"/>
     <path class="fil2" d="M4127.53 2056.27c49.89,-19.87 83.68,-65.09 109.85,-119.66 -3.56,40.61 -13.33,66.41 -30.03,87.9 -13.39,17.24 -26.96,34.41 -44.21,55.41 107.15,-13.14 221.45,-162.04 123.54,-248.72 -112.09,-99.23 -173.73,113.22 -159.15,225.07z"/>
     <path class="fil2" d="M460.33 1928.85c-20.49,-67.43 -98.43,-107.9 -135.8,-107.96 70.43,-12.61 116.04,49.48 162.19,71.27 -21.28,-127.54 -177.1,-206.45 -251.99,-123.73 -109.68,121.17 120.82,165.33 225.6,160.42z"/>
     <path class="fil2" d="M3125.71 1252.92c63.2,-19.78 72.6,-38.4 152.44,-39.83 -31.86,17.07 -71.61,23.39 -104.35,44.79 -15.58,10.18 -23.96,19.72 -31.87,27.47 34.85,30.03 107.78,40.26 173.71,28.75 75.37,-13.15 123.32,-44.54 78.22,-126.21 -53.28,-96.48 -240.34,-35.3 -268.15,65.03z"/>
     <path class="fil2" d="M1585.65 1188.22c-14.47,-52.85 -51.17,-66.7 -101.46,-107.89 66.86,13.9 76.24,46.82 126,69.54 -5.9,-93.15 -156.87,-219.96 -245.18,-124.52 -117.95,127.49 124,165.15 220.64,162.87z"/>
     <path class="fil2" d="M529.02 2238.36c-8.01,-58.81 -42.61,-89.21 -71.7,-124.39 16.49,9.93 42.49,30.37 54.61,43.19l48.95 58.1c8.61,-118.91 -113.02,-253.52 -207.9,-161.88 -83.93,81.06 86.21,179.3 176.04,184.98z"/>
     <path class="fil2" d="M3080.47 1136.12c27.83,-31.73 29.37,-46.17 46.89,-79.97l-15.18 93.3c94.04,-37.24 133.86,-193.8 47.61,-240.41 -136.47,-73.75 -132.22,173.27 -79.32,227.08z"/>
     <path class="fil2" d="M2314.67 1820.78c-30.84,17.82 -76.26,31.73 -100.07,57.94 64.9,53.28 281.47,65.67 234.54,-63.05 -38.01,-104.24 -219.15,-60.37 -246.01,27.85 37.86,-13.74 71.32,-18.23 111.54,-22.74z"/>
     <path class="fil2" d="M4448.22 1968.5c-24.5,15.17 -64.51,36.17 -82.57,58.56 32.35,25.57 86.16,36.73 137.56,32.72 70.85,-5.53 136.41,-38.48 87.93,-117.95 -49.84,-81.69 -227.97,-27.04 -237.7,53.14 31.65,-18.8 55.08,-24.61 94.78,-26.47z"/>
     <path class="fil2" d="M3393.94 1470.78c-28.03,-31.06 -48.79,-32.4 -104.55,-49.2 47.58,-2.08 71.32,-1.27 112.62,13.78 -35.34,-82.01 -215.76,-113.2 -246.43,-8.02 -42.52,145.81 194.51,92.8 238.36,43.44z"/>
     <path class="fil2" d="M2514.91 717.45c11.51,-13.6 20.75,-56.16 57.95,-77.09l-32.17 95.26c70.78,-5.36 244.22,-126.67 154.37,-195.7 -104.65,-80.41 -227.62,94.48 -180.15,177.53z"/>
     <path class="fil2" d="M3479.14 1432.46c12.88,-5.08 23.72,-74.04 99.28,-98.98 -30.99,21.47 -60.17,70.79 -72.3,122.86 87.32,-8.07 261.94,-114.66 159.35,-190.69 -102.24,-75.77 -217.48,86.97 -186.33,166.81z"/>
     <path class="fil2" d="M1309.14 1333.78c-9.92,-61.69 -28.77,-92.84 -62.12,-129.34 56.58,38.71 51.12,65.98 90.43,109.31 46.07,-81.39 -68.33,-244.08 -170.3,-180.2 -104.42,65.4 57.9,191.75 141.99,200.23z"/>
     <path class="fil2" d="M555.24 2474.09c30.75,-39.29 67.06,-50.31 89.97,-57.63 -95.34,-52.44 -257.61,58.21 -192.18,160.56 35.19,55.05 98.31,20.29 129.28,-6.82 41.32,-36.16 64.43,-61.21 81.28,-125.55l-108.35 29.44z"/>
     <path class="fil2" d="M1618.36 1008.75c-12.05,-59.87 -28.86,-72.87 -45.9,-115.25 47.1,30.95 50.9,54.54 78.85,96.16 11.04,-112.67 -79.26,-261.14 -184.32,-176.92 -93.75,75.17 79.48,185.91 151.37,196.01z"/>
     <path class="fil2" d="M1281.82 1729.53c21.71,-46.19 12.24,-93.93 3.47,-137.74 28.54,42.04 27.26,74.39 27.23,136.66 36.11,-17.11 52.56,-79.38 43.39,-136.04 -8.77,-54.16 -40.95,-103.2 -101.73,-102.81 -75.03,0.48 -82.47,53.99 -57.54,122.33 15.98,43.79 43.38,101.1 85.18,117.6z"/>
     <path class="fil2" d="M1680.49 1136.94l33.33 -49.77c12.58,-20.58 19.11,-30.65 42.56,-45.19 -22.02,43.92 -36.7,58.93 -44.96,117.32 60.48,-11.97 98.22,-37.33 132.04,-72.45 32.62,-33.87 74.95,-93.4 8.56,-130.77 -113.13,-63.69 -205.67,106.67 -171.53,180.86z"/>
     <path class="fil2" d="M3921.71 2252.12c-36.95,13.68 -83.81,55.06 -109.64,106.02 -108.67,214.43 260.33,156.28 146.9,-96.86 -8.53,23.61 -21.72,67.59 -43.68,103.67l6.42 -112.83z"/>
     <path class="fil2" d="M2577.6 841.7c44.84,-19.13 74.2,-53.99 138.06,-53.53 -39.77,13.3 -98.53,42.1 -117.03,88.11 100.62,14.94 312.36,-11.96 205.53,-130.42 -73.81,-81.83 -212.4,11.33 -226.56,95.84z"/>
     <path class="fil2" d="M2297.39 845.81c-6.23,-42.47 -55.66,-96 -86.91,-115.08 66.92,19.16 68.06,47.64 109.74,89.1 37.84,-65.19 -101.03,-228.65 -196.68,-148.34 -98.54,82.75 85.18,180.75 173.85,174.32z"/>
     <path class="fil2" d="M582.22 1901.46c77.96,-13.92 242.86,-132.93 152.57,-198.57 -108.25,-78.71 -196.5,66.82 -184.47,182.01 6.34,-10.57 27.8,-73.03 79.45,-101.07 -16.72,32.58 -37.87,68.89 -47.55,117.63z"/>
     <path class="fil2" d="M4005.53 2198.79c13.82,60.83 106.69,148.37 172.31,148.07 113.2,-0.53 101.5,-235.11 -163.59,-173.91 26.19,7.82 72.55,10.47 132.32,65.32 -60.61,-21.31 -68.14,-28.85 -141.04,-39.48z"/>
     <path class="fil2" d="M2394.39 988.44c32.3,-19.01 43.3,-72.33 56.89,-105.97 -0.76,57.35 -10.11,69.18 -21.34,118.02 81.11,-37.18 130.88,-200.98 29.62,-244.97 -141.32,-61.4 -108.85,167.62 -65.17,232.92z"/>
     <path class="fil2" d="M587.89 1646.29c16.27,-48.06 20.54,-73.5 19.89,-137.81 25.47,54.1 12.55,97.78 8.1,138.84 73.3,-28.25 98.09,-234.54 -29.89,-245.31 -139.3,-11.72 -55.57,214.48 1.9,244.28z"/>
     <path class="fil2" d="M2433.81 695.85c-16.31,-52.05 -46.94,-84.59 -83.53,-113.18 56.44,15.02 78.16,59.43 112.26,86.9 -8.3,-109.2 -120.64,-228.4 -207.36,-144.89 -92.16,88.73 85.95,170.19 178.63,171.17z"/>
     <path class="fil2" d="M1388.32 1373.2c43.03,-19.46 75.41,-60.24 131.18,-56.63 -51.46,12.78 -93.1,50.88 -111.67,92.06 97.3,6.62 305.67,-22.08 204.05,-138.56 -74.06,-84.9 -210,13.56 -223.56,103.13z"/>
     <path class="fil2" d="M1229.44 1428.61c-16.89,-41.21 -83.6,-70.9 -129.51,-73.17 67.07,-6.43 97.44,14.9 142.88,38.19 -6.5,-78.02 -172.33,-159.56 -233.11,-74.19 -100.77,141.51 148.18,128.85 219.74,109.17z"/>
     <path class="fil2" d="M332.11 1641.62c31.41,60.63 103.78,106.5 159.21,106.03 -12.53,-55.95 -32.15,-97.73 -67.33,-131.63 23.65,18.13 42.2,31.99 54.51,48.98 18.18,25.07 26.02,51.44 43.06,63.28 18.11,-40.48 -16.79,-219.61 -142.4,-188.16 -64.38,16.11 -78.6,40.62 -47.05,101.5z"/>
     <path class="fil2" d="M4240.8 2131.35c2.19,34.75 40.52,83.84 89.4,114.7 69.13,43.64 154.07,34.71 141.11,-58.27 -11.47,-82.3 -156.96,-137.14 -220.76,-86.54 35.34,8.91 73.34,13.16 111.39,53.05l-121.14 -22.94z"/>
     <path class="fil2" d="M2687.55 1411.4l-141.7 -12.04c56.01,-17.57 71.95,-17.78 138.97,-12.16 -3.92,-9.87 -8.55,-26.34 -65.89,-42.53 -223.64,-63.17 -247.32,206.23 -53.39,149.11 49.45,-14.56 102.77,-39 122.01,-82.38z"/>
     <path class="fil2" d="M1676.36 1261.53l88.71 -24.09c-39.48,25.27 -49.04,25.81 -76.37,57.54 67.91,25.12 267.8,36.67 213.63,-82.49 -44.5,-97.9 -201.56,-37.8 -225.97,49.04z"/>
     <path class="fil2" d="M1333.48 1819.61c8.29,-7.2 24.6,-33.55 64.37,-51.5l-37.33 75.56c50.7,-5.15 103.3,-20.5 137.02,-49.63 40.12,-34.66 47.2,-76.09 1.16,-108.85 -62.28,-44.3 -155.56,32.75 -165.22,134.42z"/>
    </g>
   </g>
   <path class="fil3" d="M4464.92 2585.45l-74.89 0 -8.68 41.24 -3.25 0c-32.56,-35.82 -81.4,-46.67 -128.07,-46.67 -128.07,0 -207.3,72.72 -207.3,201.87 0,45.58 0,331.02 0,376.6 0,137.84 93.34,201.87 214.9,201.87 121.55,0 213.8,-58.61 213.8,-193.19l0 -41.24 -112.87 0 0 40.16c0,77.05 -22.79,122.64 -102.02,122.64 -65.12,0 -100.93,-40.16 -100.93,-130.24 0,-45.58 0,-331.02 0,-376.6 0,-95.51 46.67,-130.24 97.67,-130.24 78.15,1.09 98.77,57.52 98.77,125.9l0 20.62 112.87 0 0 -212.72zm192.09 579.55c-1.08,0 -2.17,0 175.83,0l31.47 134.58 -28.22 22.79 0 26.05 171.48 0 0 -31.47 -34.73 -22.8 -156.28 -633.82 -105.28 0c-49.92,199.7 -104.19,436.3 -151.94,637.08l-34.73 19.54 0 31.47 133.49 0 0 -31.47 -32.56 -18.45 31.47 -133.5zm87.92 -379.86l73.8 321.26 -148.69 0c24.96,-112.88 53.18,-236.6 73.8,-321.26l1.09 0zm338.62 -128.06c-1.09,13.02 -2.17,24.96 -3.26,37.98 33.65,-1.08 44.5,16.28 57.52,48.84 19.54,46.85 52.1,215.26 92.26,229.36 0,1.09 0,1.09 0,2.18 -49.93,4.34 -77.06,66.38 -89,127.16l-29.3 146.88c-6.51,29.3 -27.14,62.94 -56.44,57.52l0 38.16c19.54,10.86 49.93,13.03 67.29,13.03 64.03,1.08 84.65,-40.34 96.59,-96.78l28.22 -136.93c11.94,-59.87 32.56,-109.79 93.34,-109.79l11.94 0 0 273.86 -41.25 31.47 0 28.4 186.68 0 0 -28.4 -41.24 -31.47 0 -273.86 13.02 0c59.69,0 80.31,48.84 92.25,108.71l27.13 138.01c10.86,56.44 34.73,97.86 97.68,96.78 17.37,0 47.75,-2.17 66.21,-13.03l1.08 -38.16c-29.3,5.42 -49.92,-28.22 -56.44,-58.61l-30.38 -145.79c-11.94,-60.78 -39.08,-122.82 -89,-127.16 0,-1.09 0,-1.09 0,-2.18 39.07,-14.1 74.89,-179.25 92.25,-227.19 11.94,-32.56 21.71,-49.92 54.27,-49.92l0 -37.99c-36.9,0 -80.32,-7.59 -112.88,15.2 -82.48,57.52 -58.6,264.09 -155.19,283.62l0 -236.95 34.73 -27.14 0 -29.3 -173.65 0 0 29.3 34.73 27.14 0 236.95c-96.6,-19.53 -74.89,-227.19 -156.29,-283.62 -32.56,-22.79 -74.89,-15.2 -112.87,-15.2 0,-1.08 0,-1.08 0,-1.08zm1088.56 691.34l0 -153.03 -45.58 0 -34.73 91.17 -161.71 0 0 -5.43c17.36,-5.43 21.7,-14.11 21.7,-30.39l0 -211.63 89 0 27.13 49.92 30.39 0 0 -164.97 -30.39 0 -27.13 53.18 -89 0 0 -252.87 128.07 0 28.22 92.25 51.01 0 0 -153.03 -349.47 0 0 26.05 35.81 27.13 0 571.96 -42.33 30.39 0 29.3 369.01 0zm138.92 -54.27l-41.24 24.97 0 29.3 186.67 0 0 -29.3 -41.24 -24.97 0 -265.9 151.94 0 0 265.9 -40.15 24.97 0 29.3 185.59 0 0 -29.3 -42.33 -24.97 0 -574.12 34.73 -27.14 0 -29.3 -172.57 0 0 29.3 34.73 27.14 0 249.62 -151.94 0 0 -249.62 34.73 -27.14 0 -29.3 -173.65 0 0 29.3 34.73 27.14 0 574.12zm798.79 -576.3c0,-2.17 0,-4.34 0,569.79 -51.01,0 -102.02,0 -151.94,0l0 -569.79 40.15 -24.96 0 -29.3 -185.59 0 0 29.3 41.25 24.96 0 574.13 -34.73 27.14 0 29.3 377.68 0 30.39 103.1 53.18 0 -8.68 -166.05 -58.61 0 0 -567.62 42.33 -24.96 0 -29.3 -186.67 0 0 29.3 41.24 24.96zm459.08 568.71l-60.77 0c0,-105.28 0,-201.87 0,-304.97l59.69 0c64.03,0 87.91,34.73 87.91,95.5 0,37.99 0,74.89 0,112.87 0,60.78 -21.71,96.6 -86.83,96.6zm193.19 -209.47c0,-123.72 -89,-155.2 -196.44,-155.2l-57.52 0c0,-62.04 0,-136.2 0,-198.25l40.15 -30.57 0 -29.48c-55.35,0 -129.15,0 -185.59,0l0 29.48 42.33 30.57c0,189.57 0,381.67 0,569.43l-35.81 27.13 0 28.22 198.61 0c105.27,0 194.27,-37.99 194.27,-158.46l0 -112.87zm209.46 -357.79l34.73 -27.31 0 -28.4 -172.56 0 0 29.3 34.73 27.14c0,189.92 0,378.77 0,568.7l-42.33 30.39 0 29.3c57.52,0 130.24,0 185.59,0l0 -29.3 -40.16 -30.39 0 -569.43zm-3547.87 1566l0 -115.04c0,-62.95 -29.31,-98.77 -73.8,-116.13 34.73,-15.2 53.18,-52.1 53.18,-90.08l0 -98.76c0,-100.94 -61.87,-125.9 -161.71,-125.9l-210.55 0 0 29.3 35.81 27.14 0 568.7 -42.33 30.39 0 29.3 223.58 0c94.42,0 175.82,-28.22 175.82,-138.92zm-275.67 78.14l0 -5.42c17.36,-5.43 21.71,-14.11 21.71,-32.56l0 -237.69 67.29 0c59.69,0 80.31,27.14 80.31,82.49l0 112.87c-1.09,56.44 -24.96,80.31 -71.63,80.31l-97.68 0zm149.77 -399.39c0,42.33 -18.45,72.71 -58.6,72.71l-69.46 0 0 -236.59 69.46 0c37.98,0 58.6,21.7 58.6,65.12l0 98.76zm927.94 -300.63c-41.24,0 -88.99,-5.43 -123.72,18.45 -98.76,69.46 -58.61,309.31 -196.44,309.31l0 -268.07 41.24 -28.22 0 -31.47 -192.1 0 0 31.47 41.24 28.22c0,212.72 0,424.36 0,637.08l-47.75 32.56 0 31.47c61.86,0 143.26,0 206.21,0l0 -31.47 -48.84 -32.56c0,-103.11 0,-205.13 0,-308.23l32.56 0c68.37,0 93.33,54.26 107.44,121.55l31.48 150.86c13.02,60.78 36.9,106.36 106.36,106.36 19.53,0 51.01,-2.17 72.71,-14.11l0 -42.32c-33.64,7.59 -56.43,-28.22 -64.03,-64.04l-33.64 -158.45c-15.2,-69.46 -45.59,-136.75 -102.02,-142.18l0 -2.17c49.92,-16.28 83.57,-193.18 107.44,-249.62 14.11,-33.64 24.96,-53.18 61.86,-52.1l0 -42.32zm504.67 235.51c0,-120.47 -89,-159.54 -194.27,-159.54l-198.61 0 0 29.3 35.81 27.14 0 568.7 -42.33 30.39 0 29.3 185.59 0 0 -29.3 -40.15 -30.39 0 -188.85 57.52 0c107.44,0 196.44,-31.47 196.44,-155.2l0 -121.55zm-193.19 -96.59c65.12,0 86.83,35.81 86.83,96.59l0 121.55c0,60.78 -23.88,96.6 -87.91,96.6l-59.69 0 0 -314.74 60.77 0zm478.62 560.02l-60.77 0c0,-105.28 0,-201.87 0,-304.97l59.69 0c64.03,0 87.91,34.73 87.91,95.5 0,37.99 0,74.89 0,112.87 0,60.78 -21.71,96.6 -86.83,96.6zm193.19 -209.47c0,-123.72 -89,-155.2 -196.44,-155.2l-57.52 0c0,-62.04 0,-136.2 0,-198.25l40.15 -30.57 0 -29.48c-55.35,0 -129.15,0 -185.59,0l0 29.48 42.33 30.57c0,189.57 0,381.67 0,569.43l-35.81 27.13 0 28.22 198.61 0c105.27,0 194.27,-37.99 194.27,-158.46l0 -112.87zm209.46 -357.79l34.73 -27.31 0 -28.4 -172.56 0 0 29.3 34.73 27.14c0,189.92 0,378.77 0,568.7l-42.33 30.39 0 29.3c57.52,0 130.24,0 185.59,0l0 -29.3 -40.16 -30.39 0 -569.43zm257.22 146.16l-3.26 -123.73c2.17,0 1.09,0 3.26,0 34.73,193.19 64.03,376.6 94.42,570.87 3.26,19.54 13.02,28.22 34.73,28.22l85.74 0 103.1 -606.69c1.09,0 3.26,0 4.34,0 -3.25,97.68 -3.25,96.6 -3.25,95.51l0 459.09 -41.24 30.39 0 29.3 187.76 0 0 -29.3 -41.25 -30.39 0 -568.7 36.9 -27.14 0 -29.3c-57.52,0 -88.99,1.08 -146.51,1.08 -37.99,0 -51.01,3.26 -58.61,41.25l-82.48 513.35c-1.09,0 -1.09,0 -2.17,0 -19.54,-191.02 -39.08,-315.83 -73.8,-507.93 -13.03,-54.26 -35.82,-47.75 -111.79,-47.75l-95.51 0 0 29.3 36.9 27.14 0 569.78 -39.07 27.14 0 31.47 151.94 0 0 -31.47 -40.15 -27.14 0 -424.35zm775.99 406.99c65.12,-184.5 125.9,-377.69 189.93,-562.19l32.56 -19.54 0 -27.13 -136.75 0 0 27.13 33.64 18.45 -98.76 311.49 -105.28 -314.74c-16.27,-43.42 -26.04,-42.33 -93.33,-42.33l-67.29 0 0 28.22 41.24 18.45 168.22 462.34 -29.3 78.14c-20.62,54.27 -43.41,68.38 -100.93,48.84l-9.77 48.84c81.4,36.9 145.43,11.94 175.82,-75.97z"/>
  </g>
 </g>
</svg>
